<svg width="11" height="11" viewBox="0 0 11 11" fill="none" xmlns="http://www.w3.org/2000/svg">
<g clip-path="url(#clip0_64_733)">
<path d="M5.5 0C2.46246 0 0 2.46246 0 5.5C0 8.07928 1.77584 10.2436 4.17142 10.8381V7.1808H3.03732V5.5H4.17142V4.77576C4.17142 2.90378 5.01864 2.0361 6.85652 2.0361C7.205 2.0361 7.80626 2.10452 8.05222 2.17272V3.69622C7.92242 3.68258 7.69692 3.67576 7.41686 3.67576C6.51508 3.67576 6.1666 4.01742 6.1666 4.90556V5.5H7.96312L7.65446 7.1808H6.1666V10.9597C8.88998 10.6308 11.0002 8.31204 11.0002 5.5C11 2.46246 8.53754 0 5.5 0Z" fill="#D4D4D4"/>
</g>
<defs>
<clipPath id="clip0_64_733">
<rect width="11" height="11" fill="white"/>
</clipPath>
</defs>
</svg>
