<svg width="11" height="11" viewBox="0 0 11 11" fill="none" xmlns="http://www.w3.org/2000/svg">
<g clip-path="url(#clip0_64_730)">
<path d="M5.5 1.40039C6.83594 1.40039 6.99414 1.40625 7.51953 1.42969C8.00781 1.45117 8.27149 1.5332 8.44727 1.60156C8.67969 1.69141 8.84766 1.80078 9.02148 1.97461C9.19727 2.15039 9.30469 2.31641 9.39453 2.54883C9.46289 2.72461 9.54492 2.99023 9.56641 3.47656C9.58984 4.00391 9.5957 4.16211 9.5957 5.49609C9.5957 6.83203 9.58984 6.99024 9.56641 7.51563C9.54492 8.00391 9.46289 8.26758 9.39453 8.44336C9.30469 8.67578 9.19531 8.84375 9.02148 9.01758C8.8457 9.19336 8.67969 9.30078 8.44727 9.39063C8.27149 9.45899 8.00586 9.54102 7.51953 9.5625C6.99219 9.58594 6.83399 9.5918 5.5 9.5918C4.16406 9.5918 4.00586 9.58594 3.48047 9.5625C2.99219 9.54102 2.72852 9.45899 2.55273 9.39063C2.32031 9.30078 2.15234 9.19141 1.97852 9.01758C1.80273 8.8418 1.69531 8.67578 1.60547 8.44336C1.53711 8.26758 1.45508 8.00195 1.43359 7.51563C1.41016 6.98828 1.4043 6.83008 1.4043 5.49609C1.4043 4.16016 1.41016 4.00195 1.43359 3.47656C1.45508 2.98828 1.53711 2.72461 1.60547 2.54883C1.69531 2.31641 1.80469 2.14844 1.97852 1.97461C2.1543 1.79883 2.32031 1.69141 2.55273 1.60156C2.72852 1.5332 2.99414 1.45117 3.48047 1.42969C4.00586 1.40625 4.16406 1.40039 5.5 1.40039ZM5.5 0.5C4.14258 0.5 3.97266 0.505859 3.43945 0.529297C2.9082 0.552734 2.54297 0.638672 2.22656 0.761719C1.89648 0.890625 1.61719 1.06055 1.33984 1.33984C1.06055 1.61719 0.890625 1.89648 0.761719 2.22461C0.638672 2.54297 0.552734 2.90625 0.529297 3.4375C0.505859 3.97266 0.5 4.14258 0.5 5.5C0.5 6.85742 0.505859 7.02734 0.529297 7.56055C0.552734 8.0918 0.638672 8.45703 0.761719 8.77344C0.890625 9.10352 1.06055 9.38281 1.33984 9.66016C1.61719 9.9375 1.89648 10.1094 2.22461 10.2363C2.54297 10.3594 2.90625 10.4453 3.4375 10.4688C3.9707 10.4922 4.14063 10.498 5.49805 10.498C6.85547 10.498 7.02539 10.4922 7.55859 10.4688C8.08984 10.4453 8.45508 10.3594 8.77149 10.2363C9.09961 10.1094 9.37891 9.9375 9.65625 9.66016C9.93359 9.38281 10.1055 9.10352 10.2324 8.77539C10.3555 8.45703 10.4414 8.09375 10.4648 7.5625C10.4883 7.0293 10.4941 6.85938 10.4941 5.50195C10.4941 4.14453 10.4883 3.97461 10.4648 3.44141C10.4414 2.91016 10.3555 2.54492 10.2324 2.22852C10.1094 1.89648 9.93945 1.61719 9.66016 1.33984C9.38281 1.0625 9.10352 0.890625 8.77539 0.763672C8.45703 0.640625 8.09375 0.554688 7.5625 0.53125C7.02734 0.505859 6.85742 0.5 5.5 0.5Z" fill="#D3D3D3"/>
<path d="M5.49805 2.93164C4.08008 2.93164 2.92969 4.08203 2.92969 5.5C2.92969 6.91797 4.08008 8.06836 5.49805 8.06836C6.91602 8.06836 8.06641 6.91797 8.06641 5.5C8.06641 4.08203 6.91602 2.93164 5.49805 2.93164ZM5.49805 7.16602C4.57813 7.16602 3.83203 6.41992 3.83203 5.5C3.83203 4.58008 4.57813 3.83398 5.49805 3.83398C6.41797 3.83398 7.16406 4.58008 7.16406 5.5C7.16406 6.41992 6.41797 7.16602 5.49805 7.16602Z" fill="#D3D3D3"/>
<path d="M8.76953 2.83008C8.76953 3.16211 8.5 3.42969 8.16992 3.42969C7.83789 3.42969 7.57031 3.16016 7.57031 2.83008C7.57031 2.49805 7.83984 2.23047 8.16992 2.23047C8.5 2.23047 8.76953 2.5 8.76953 2.83008Z" fill="#D3D3D3"/>
</g>
<defs>
<clipPath id="clip0_64_730">
<rect width="10" height="10" fill="white" transform="translate(0.5 0.5)"/>
</clipPath>
</defs>
</svg>
