<svg width="82" height="59" viewBox="0 0 82 59" fill="none" xmlns="http://www.w3.org/2000/svg">
<g clip-path="url(#clip0_64_551)">
<path d="M54.7318 0H14.2682C6.38809 0 0 6.71573 0 15C0 23.2843 6.38809 30 14.2682 30H54.7318C62.6119 30 69 23.2843 69 15C69 6.71573 62.6119 0 54.7318 0Z" fill="url(#paint0_linear_64_551)"/>
<path d="M27.2682 59L67.7318 59C75.6119 59 82 52.5081 82 44.5C82 36.4919 75.6119 30 67.7318 30L27.2682 30C19.3881 30 13 36.4919 13 44.5C13 52.5081 19.3881 59 27.2682 59Z" fill="url(#paint1_linear_64_551)"/>
</g>
<defs>
<linearGradient id="paint0_linear_64_551" x1="68.9935" y1="15.0034" x2="0" y2="15.0034" gradientUnits="userSpaceOnUse">
<stop stop-color="white"/>
<stop offset="0.2" stop-color="white" stop-opacity="0.71"/>
<stop offset="0.39" stop-color="white" stop-opacity="0.46"/>
<stop offset="0.57" stop-color="white" stop-opacity="0.26"/>
<stop offset="0.72" stop-color="white" stop-opacity="0.12"/>
<stop offset="0.84" stop-color="white" stop-opacity="0.03"/>
<stop offset="0.92" stop-color="white" stop-opacity="0"/>
</linearGradient>
<linearGradient id="paint1_linear_64_551" x1="13.0065" y1="44.5033" x2="82" y2="44.5033" gradientUnits="userSpaceOnUse">
<stop stop-color="white"/>
<stop offset="0.2" stop-color="white" stop-opacity="0.71"/>
<stop offset="0.39" stop-color="white" stop-opacity="0.46"/>
<stop offset="0.57" stop-color="white" stop-opacity="0.26"/>
<stop offset="0.72" stop-color="white" stop-opacity="0.12"/>
<stop offset="0.84" stop-color="white" stop-opacity="0.03"/>
<stop offset="0.92" stop-color="white" stop-opacity="0"/>
</linearGradient>
<clipPath id="clip0_64_551">
<rect width="82" height="59" fill="white"/>
</clipPath>
</defs>
</svg>
